<svg xmlns="http://www.w3.org/2000/svg" version="1.1" xmlns:xlink="http://www.w3.org/1999/xlink" xmlns:svgjs="http://svgjs.dev/svgjs" width="100%" height="100%" viewBox="0 0 1000 600"><rect width="1000" height="600" x="0" y="0" fill="#e2d1f9"/><g><rect width="333.3333333333333" height="333.3333333333333" rx="13.333333333333334" ry="13.333333333333334" y="170.5807076010257" fill="#317773" transform="matrix(0.8425537359420958,0,0,0.8425537359420958,0,15.850962000901575)" x="148.35848999023438"/><path d="M369.3555105671412 412.24737182210475L351.3495587313257 412.24737182210475L397.6293192349506 262.2473763634109L415.843604397792 262.2473763634109L369.3555105671412 412.24737182210475ZM277.8376561950214 412.24737182210475L260.06979959009277 412.24737182210475L214.2067057405199 262.2473763634109L232.42099090336131 262.2473763634109L277.8376561950214 412.24737182210475ZM279.35551329192486 412.24737182210475L261.9745614371873 412.24737182210475L306.1412267666916 262.2473763634109L323.4924167175683 262.2473763634109L279.35551329192486 412.24737182210475ZM367.83765347023774 412.24737182210475L349.8317016344223 412.24737182210475L306.7662267477695 262.2473763634109L324.1174166986462 262.2473763634109L367.83765347023774 412.24737182210475Z " fill="#e2d1f9" transform="matrix(0.8425537359420958,0,0,0.8425537359420958,0,15.850962000901575)"/><path d="M715.053939479574 409.77232008472294L697.6421969892103 409.77232008472294L742.3946921503928 264.722432231116L760.0078928183307 264.722432231116L715.053939479574 409.77232008472294ZM626.5562400450816 409.77232008472294L609.374735471946 409.77232008472294L565.0251566659126 264.722432231116L582.6383573338505 264.722432231116L626.5562400450816 409.77232008472294ZM628.0240067674097 409.77232008472294L611.2166388097696 409.77232008472294L653.9257724555539 264.722432231116L670.7043606735406 264.722432231116L628.0240067674097 409.77232008472294ZM713.5861727572458 409.77232008472294L696.1744302668823 409.77232008472294L654.5301469882772 264.722432231116L671.3087352062639 264.722432231116L713.5861727572458 409.77232008472294ZM885.3724387489481 264.722432231116L833.165991017511 349.47876551065417L818.0278479597735 342.2262711179738L865.2841804708098 264.722432231116L885.3724387489481 264.722432231116ZM833.3674491950856 409.77232008472294L815.9557067047219 409.77232008472294L815.9557067047219 340.1541298629223L833.3674491950856 340.1541298629223L833.3674491950856 409.77232008472294ZM831.295307940034 342.2262711179738L816.1571648822965 349.47876551065417L763.9507171508593 264.722432231116L784.2404336065722 264.722432231116L831.295307940034 342.2262711179738ZM968.2580889510093 412.2473776949234L968.2580889510093 412.2473776949234Q947.3352182229196 412.2473776949234 931.1610045376563 402.721283869617Q915.0155705920464 393.1951900443107 905.892393121889 376.2151436487496Q896.7692156517315 359.20631751353494 896.7692156517315 337.24737615791946L896.7692156517315 337.24737615791946Q896.7692156517315 315.0869766247295 905.777274163275 298.19326944812883Q914.7853326748185 281.2995622715282 930.7580881825073 271.77346844622184Q946.7020639505427 262.24737462091554 967.6249346786324 262.24737462091554L967.6249346786324 262.24737462091554Q988.5765851463756 262.24737462091554 1004.635679873025 271.85980766518236Q1020.6947745996742 281.50102044910267 1029.587714152604 298.3947276257033Q1038.509433445187 315.288434802304 1038.509433445187 337.24737615791946L1038.509433445187 337.24737615791946Q1038.509433445187 359.20631751353494 1029.587714152604 376.2151436487496Q1020.6947745996742 393.1951900443107 1004.8371380505994 402.721283869617Q988.9795015015245 412.2473776949234 968.2580889510093 412.2473776949234ZM968.2580889510093 396.303401926888L968.2580889510093 396.303401926888Q983.7991483638957 396.303401926888 995.5988416218281 388.73433039801927Q1007.4273146194139 381.1652588691505 1014.1617736983314 367.9265786285435Q1020.8962327772488 354.659118648283 1020.8962327772488 337.24737615791946L1020.8962327772488 337.24737615791946Q1020.8962327772488 320.03709184513036 1014.0466547397173 306.68329264590943Q1007.2258564418394 293.32949344668845 995.3110442252931 285.7604219178197Q983.3962320087469 278.1913503889509 967.6249346786324 278.1913503889509L967.6249346786324 278.1913503889509Q952.083875265746 278.1913503889509 940.0827238302393 285.7604219178197Q928.052792655079 293.32949344668845 921.2319943572011 306.68329264590943Q914.3824163196696 320.03709184513036 914.3824163196696 337.24737615791946L914.3824163196696 337.24737615791946Q914.3824163196696 354.659118648283 921.2319943572011 367.9265786285435Q928.052792655079 381.1652588691505 940.2841820078136 388.73433039801927Q952.5155713605484 396.303401926888 968.2580889510093 396.303401926888Z " fill="#317773" transform="matrix(0.8425537359420958,0,0,0.8425537359420958,0,15.850962000901575)"/></g></svg>